<mxfile host="app.diagrams.net" modified="2023-07-09T03:36:02.889Z" agent="Mozilla/5.0 (Windows NT 10.0; Win64; x64) AppleWebKit/537.36 (KHTML, like Gecko) Chrome/114.0.0.0 Safari/537.36" version="21.6.1" etag="5wQptWpCy9v1Ub1igO3j" type="github">
  <diagram name="Page-1" id="rV_b6ahB45qPA3OvtL6F">
    <mxGraphModel>
      <root>
        <mxCell id="0" />
        <mxCell id="1" parent="0" />
      </root>
    </mxGraphModel>
  </diagram>
</mxfile>
